<svg xmlns="http://www.w3.org/2000/svg" xmlns:xlink="http://www.w3.org/1999/xlink" viewBox="0 0 119.81 201.42"><defs><style>.cls-1{fill:none;}.cls-2{fill:#edf5e1;}.cls-3{clip-path:url(#clip-path);}.cls-4{fill:#d7dece;}.cls-5{fill:#00e5ca;}</style><clipPath id="clip-path" transform="translate(0)"><path id="SVGID" class="cls-1" d="M3.82,143.14c5.24-7.22,15.22-4.67,20.64-12.86,5.8-8.77-1.63-19.64,5.68-28.71a18.39,18.39,0,0,1,7.48-5.38,15.25,15.25,0,0,1-.9-10.77,14.93,14.93,0,0,1,4.79-7.18,164,164,0,0,1,3.73-24.37C49,37.5,53,32.27,55.26,29.64a36.43,36.43,0,0,1,7.93-6.73c-.51-4-1.48-10.54,2.39-15.4.32-.4,3.32-3.38,5.31-2.47a6,6,0,0,1,2.84,5.87C74,9.64,76,5.35,82.56,1.33c2.62-1.59,5.7-2,7.94.1,2,1.83.64,10-8.17,21.48,6.4-8.3,9.49-9.49,13.76-10.69,1.9-.54,4.53.18,5.46,1.64,1.24,2-1.87,6.45-3,7.52C94.5,25.43,95,25.61,92.05,27c3,.17,3.91,1.69,5.09,2.82,6.43,6.19.42,25.07-13.76,47.55a13.67,13.67,0,0,1,4,10.17A12.71,12.71,0,0,1,85,94.09a10.86,10.86,0,0,1,2.54,6.43,11,11,0,0,1-2.84,7.78c.93.91,7.65,7.77,6.43,17.35A19.73,19.73,0,0,1,87,135.37a16.3,16.3,0,0,1-2.1,18.54,33,33,0,0,1,3.59,13,32.3,32.3,0,0,1-.6,8.52A23.43,23.43,0,0,1,91,183.82c.22,1.3,1.91,11.43-1.94,14.05-5.2,3.55-13.86-11.06-31.25-14.8-17.14-3.69-28.56,1.89-41-2.84C.22,173.9-4,154,3.82,143.14Z"/></clipPath></defs><title>dead_llama</title><g id="Layer_2" data-name="Layer 2"><g id="Layer_3" data-name="Layer 3"><path class="cls-2" d="M3.82,143.14c5.24-7.22,15.22-4.67,20.64-12.86,5.8-8.77-1.63-19.64,5.68-28.71a18.39,18.39,0,0,1,7.48-5.38,15.25,15.25,0,0,1-.9-10.77,14.93,14.93,0,0,1,4.79-7.18,164,164,0,0,1,3.73-24.37C49,37.5,53,32.27,55.26,29.64a36.43,36.43,0,0,1,7.93-6.73c-.51-4-1.48-10.54,2.39-15.4.32-.4,3.32-3.38,5.31-2.47a6,6,0,0,1,2.84,5.87C74,9.64,76,5.35,82.56,1.33c2.62-1.59,5.7-2,7.94.1,2,1.83.64,10-8.17,21.48,6.4-8.3,9.49-9.49,13.76-10.69,1.9-.54,4.53.18,5.46,1.64,1.24,2-1.87,6.45-3,7.52C94.5,25.43,95,25.61,92.05,27c3,.17,3.91,1.69,5.09,2.82,6.43,6.19.42,25.07-13.76,47.55a13.67,13.67,0,0,1,4,10.17A12.71,12.71,0,0,1,85,94.09a10.86,10.86,0,0,1,2.54,6.43,11,11,0,0,1-2.84,7.78c.93.91,7.65,7.77,6.43,17.35A19.73,19.73,0,0,1,87,135.37a16.3,16.3,0,0,1-2.1,18.54,33,33,0,0,1,3.59,13,32.3,32.3,0,0,1-.6,8.52A23.43,23.43,0,0,1,91,183.82c.22,1.3,1.91,11.43-1.94,14.05-5.2,3.55-13.86-11.06-31.25-14.8-17.14-3.69-28.56,1.89-41-2.84C.22,173.9-4,154,3.82,143.14Z" transform="translate(0)"/><g class="cls-3"><path class="cls-4" d="M99.3,60.52c-10.21-2.29-20.23,1.24-25.12,8.67-3.79,5.77-2.4,12.65-2.09,15-1.22,2-3.88,4.9-4.49,9.57-.86,6.59,1.82,12.07,2.84,14.36-.84,2.26-2.72,5.85-2.54,10.76.17,4.66,2.34,10.24,3.29,12.41-1,3.68-3.48,8.45-3.89,13.69-.53,6.75,1.8,10.56,2.54,15-1.13,2.52-3.85,6.58-4,12a29.8,29.8,0,0,0,4.63,17.65c1.84,2.78,7.4,11.2,17.35,11.81,8.35.51,14.31-4.82,15.7-6.13a200.71,200.71,0,0,0,3.14-25.57c1.49-25.51-2.57-40-5.38-73.13C100.54,88.15,99.67,75.75,99.3,60.52Z" transform="translate(0)"/></g><path class="cls-5" d="M118.55,58.14a6,6,0,0,0,.89-3.51,6.9,6.9,0,0,0-2.54-4.41C110,43.7,99,38,99,38c-3.33-1.74-11.53-6-15.26-4.63-.45.16-1.77.16-2,1.17-.21.74.32,1.32,1,2.72a6.25,6.25,0,0,1,1,3.06,1.89,1.89,0,0,1-1.31,1.78c-1.43.55-2.65-.25-4.74.09-.86.14-1.79.29-2.17,1-.49.87,1,1.54,1.26,4a5.42,5.42,0,0,1-.39,2.55c-.64,1.52-3.19,1-5.22,3a2,2,0,0,0-.59,2.07c.18.62,1.22.91,6.28,2.16,1.09.27,1.56.19,1.72.67.35,1-1.66,2.56-2.31,3.06-2.54,2-4.08,2-4.23,3s1.5,2.21,1.76,2.36c2.72,1.51,4.71,0,7.7,1.34A8.59,8.59,0,0,1,84,69.28c4.38,4,13.44,3.64,15.56,3.52,7.66-.46,19.48-3.2,20.22-9.42A9.56,9.56,0,0,0,118.55,58.14Z" transform="translate(0)"/><path d="M86.05,44.28c0-.36,4.21-.9,8,1,2.08,1.06,3.67,2.66,3.51,2.91s-2-1-5.47-2.22C88.19,44.59,86,44.53,86.05,44.28Z" transform="translate(0)"/><path d="M87.44,50.27c-.32-.24,1.78-4.07,5.8-6.61,2.2-1.39,4.67-1.66,4.82-1.36s-2.13,1-5.29,3.64C89.19,48.88,87.67,50.44,87.44,50.27Z" transform="translate(0)"/></g></g></svg>