<svg xmlns="http://www.w3.org/2000/svg" xmlns:xlink="http://www.w3.org/1999/xlink" viewBox="0 0 136.19 201.42"><defs><style>.cls-1{fill:none;}.cls-2{fill:gold;}.cls-3{fill:#623018;}.cls-4{clip-path:url(#clip-path);}.cls-5{fill:#cd0013;}.cls-6{fill:#949494;}.cls-7{fill:#edf5e1;}.cls-8{clip-path:url(#clip-path-2);}.cls-9{fill:#d7dece;}.cls-10{fill:#fc3f05;}.cls-11{fill:#fff;}</style><clipPath id="clip-path" transform="translate(0)"><path id="SVGID" class="cls-1" d="M118.18,61.33a40,40,0,0,1,8,1.1,42.83,42.83,0,0,1,7.74,2.73,4.15,4.15,0,0,1,.24,2.12,3.1,3.1,0,0,1-1.57,2.12,32.46,32.46,0,0,1-7.86-2.22,27.52,27.52,0,0,1-7.51-4.41,1,1,0,0,1,0-.86A1.22,1.22,0,0,1,118.18,61.33Z"/></clipPath><clipPath id="clip-path-2" transform="translate(0)"><path id="SVGID-2" data-name="SVGID" class="cls-1" d="M3.82,143.14c5.24-7.22,15.22-4.67,20.64-12.86,5.8-8.77-1.63-19.64,5.68-28.71a18.39,18.39,0,0,1,7.48-5.38,15.25,15.25,0,0,1-.9-10.77,14.93,14.93,0,0,1,4.79-7.18,164,164,0,0,1,3.73-24.37C49,37.5,53,32.27,55.26,29.64a36.43,36.43,0,0,1,7.93-6.73c-.51-4-1.48-10.54,2.39-15.4.32-.4,3.32-3.38,5.31-2.47a6,6,0,0,1,2.84,5.87C74,9.64,76,5.35,82.56,1.33c2.62-1.59,5.7-2,7.94.1,2,1.83.64,10-8.17,21.48,6.4-8.3,9.49-9.49,13.76-10.69,1.9-.54,4.53.18,5.46,1.64,1.24,2-1.87,6.45-3,7.52C94.5,25.43,95,25.61,92.05,27c3,.17,3.91,1.69,5.09,2.82,6.43,6.19.42,25.07-13.76,47.55a13.67,13.67,0,0,1,4,10.17A12.71,12.71,0,0,1,85,94.09a10.86,10.86,0,0,1,2.54,6.43,11,11,0,0,1-2.84,7.78c.93.91,7.65,7.77,6.43,17.35A19.73,19.73,0,0,1,87,135.37a16.3,16.3,0,0,1-2.1,18.54,33,33,0,0,1,3.59,13,32.3,32.3,0,0,1-.6,8.52A23.43,23.43,0,0,1,91,183.82c.22,1.3,1.91,11.43-1.94,14.05-5.2,3.55-13.86-11.06-31.25-14.8-17.14-3.69-28.56,1.89-41-2.84C.22,173.9-4,154,3.82,143.14Z"/></clipPath></defs><title>gold-llama</title><g id="Layer_2" data-name="Layer 2"><g id="Layer_3" data-name="Layer 3"><path class="cls-2" d="M92.66,104l0,.24a.58.58,0,0,1-.68.5l-6-1.36a.67.67,0,0,1-.47-.77l0-.23a.57.57,0,0,1,.69-.49l6,1.35A.65.65,0,0,1,92.66,104Z" transform="translate(0)"/><path class="cls-3" d="M118.18,61.33a40,40,0,0,1,8,1.1,42.83,42.83,0,0,1,7.74,2.73,4.15,4.15,0,0,1,.24,2.12,3.1,3.1,0,0,1-1.57,2.12,32.46,32.46,0,0,1-7.86-2.22,27.52,27.52,0,0,1-7.51-4.41,1,1,0,0,1,0-.86A1.22,1.22,0,0,1,118.18,61.33Z" transform="translate(0)"/><g class="cls-4"><path d="M127.47,61.86a11.53,11.53,0,0,1-2.53,6.79l1.46.72a11.26,11.26,0,0,0,1.87-3.2,11,11,0,0,0,.69-4.28Z" transform="translate(0)"/><path class="cls-5" d="M132.26,70a10.09,10.09,0,0,1,1.88-5.55l.64,3.35Z" transform="translate(0)"/></g><path class="cls-6" d="M133.74,64.17a8.1,8.1,0,0,0,.85-3.72,10,10,0,0,0-2.13-5.38c-3.11-5-2.94-11.66-1.57-15.87A16.53,16.53,0,0,1,134.64,33a17.91,17.91,0,0,0-2,10.61c.64,4.45,3,6.17,3.44,10.53A16.82,16.82,0,0,1,133.74,64.17Z" transform="translate(0)"/><path class="cls-7" d="M3.82,143.14c5.24-7.22,15.22-4.67,20.64-12.86,5.8-8.77-1.63-19.64,5.68-28.71a18.39,18.39,0,0,1,7.48-5.38,15.25,15.25,0,0,1-.9-10.77,14.93,14.93,0,0,1,4.79-7.18,164,164,0,0,1,3.73-24.37C49,37.5,53,32.27,55.26,29.64a36.43,36.43,0,0,1,7.93-6.73c-.51-4-1.48-10.54,2.39-15.4.32-.4,3.32-3.38,5.31-2.47a6,6,0,0,1,2.84,5.87C74,9.64,76,5.35,82.56,1.33c2.62-1.59,5.7-2,7.94.1,2,1.83.64,10-8.17,21.48,6.4-8.3,9.49-9.49,13.76-10.69,1.9-.54,4.53.18,5.46,1.64,1.24,2-1.87,6.45-3,7.52C94.5,25.43,95,25.61,92.05,27c3,.17,3.91,1.69,5.09,2.82,6.43,6.19.42,25.07-13.76,47.55a13.67,13.67,0,0,1,4,10.17A12.71,12.71,0,0,1,85,94.09a10.86,10.86,0,0,1,2.54,6.43,11,11,0,0,1-2.84,7.78c.93.91,7.65,7.77,6.43,17.35A19.73,19.73,0,0,1,87,135.37a16.3,16.3,0,0,1-2.1,18.54,33,33,0,0,1,3.59,13,32.3,32.3,0,0,1-.6,8.52A23.43,23.43,0,0,1,91,183.82c.22,1.3,1.91,11.43-1.94,14.05-5.2,3.55-13.86-11.06-31.25-14.8-17.14-3.69-28.56,1.89-41-2.84C.22,173.9-4,154,3.82,143.14Z" transform="translate(0)"/><g class="cls-8"><path class="cls-9" d="M99.3,60.52c-10.21-2.29-20.23,1.24-25.12,8.67-3.79,5.77-2.4,12.65-2.09,15-1.22,2-3.88,4.9-4.49,9.57-.86,6.59,1.82,12.07,2.84,14.36-.84,2.26-2.72,5.85-2.54,10.76.17,4.66,2.34,10.24,3.29,12.41-1,3.68-3.48,8.45-3.89,13.69-.53,6.75,1.8,10.56,2.54,15-1.13,2.52-3.85,6.58-4,12a29.8,29.8,0,0,0,4.63,17.65c1.84,2.78,7.4,11.2,17.35,11.81,8.35.51,14.31-4.82,15.7-6.13a200.71,200.71,0,0,0,3.14-25.57c1.49-25.51-2.57-40-5.38-73.13C100.54,88.15,99.67,75.75,99.3,60.52Z" transform="translate(0)"/></g><g class="cls-8"><path class="cls-9" d="M99.3,60.52c-10.21-2.29-20.23,1.24-25.12,8.67-3.79,5.77-2.4,12.65-2.09,15-1.22,2-3.88,4.9-4.49,9.57-.86,6.59,1.82,12.07,2.84,14.36-.84,2.26-2.72,5.85-2.54,10.76.17,4.66,2.34,10.24,3.29,12.41-1,3.68-3.48,8.45-3.89,13.69-.53,6.75,1.8,10.56,2.54,15-1.13,2.52-3.85,6.58-4,12a29.8,29.8,0,0,0,4.63,17.65c1.84,2.78,7.4,11.2,17.35,11.81,8.35.51,14.31-4.82,15.7-6.13a200.71,200.71,0,0,0,3.14-25.57c1.49-25.51-2.57-40-5.38-73.13C100.54,88.15,99.67,75.75,99.3,60.52Z" transform="translate(0)"/></g><path class="cls-10" d="M118.59,58.05a5.92,5.92,0,0,0,.9-3.51A6.9,6.9,0,0,0,117,50.13C110,43.61,99,37.87,99,37.87c-3.32-1.75-11.52-6-15.25-4.64-.45.16-1.77.16-2,1.18-.21.73.31,1.31,1,2.72a6.33,6.33,0,0,1,1,3A1.88,1.88,0,0,1,82.43,42c-1.42.54-2.64-.26-4.73.08-.86.14-1.79.29-2.17,1-.49.87,1,1.54,1.26,4a5.56,5.56,0,0,1-.39,2.55c-.64,1.53-3.19,1-5.22,3a2,2,0,0,0-.59,2.07c.18.62,1.21.91,6.28,2.17,1.09.27,1.56.18,1.72.66.35,1-1.67,2.56-2.32,3.07-2.53,2-4.07,2-4.22,3s1.5,2.21,1.76,2.36c2.72,1.51,4.71,0,7.7,1.34a9.1,9.1,0,0,1,2.54,1.87c4.38,4,13.44,3.65,15.55,3.52,7.67-.46,19.49-3.2,20.23-9.42A9.65,9.65,0,0,0,118.59,58.05Z" transform="translate(0)"/><path d="M93.64,44.45A4.64,4.64,0,0,0,88.76,44a4.4,4.4,0,0,0-2.24,3.47,4.9,4.9,0,0,0,3.36,4.83A4.7,4.7,0,0,0,95,51C96.56,49,95.58,45.86,93.64,44.45Z" transform="translate(0)"/><ellipse class="cls-11" cx="90.71" cy="45.46" rx="1.01" ry="0.77"/><path class="cls-2" d="M42.55,68.31l-1.79,1.17a2.46,2.46,0,0,0-.71,3.4l3,4.5a2.45,2.45,0,0,0,3.39.7l1.79-1.17a2.46,2.46,0,0,0,.71-3.4L46,69A2.45,2.45,0,0,0,42.55,68.31Zm5.07,6a.92.92,0,0,1-.27,1.28L45.56,76.8a.92.92,0,0,1-1.27-.26l-3-4.5a.92.92,0,0,1,.27-1.28l1.79-1.17a.93.93,0,0,1,1.28.26Z" transform="translate(0)"/><path class="cls-2" d="M49.91,78.72l-1.33,1.67A2.46,2.46,0,0,0,49,83.84l4.21,3.35a2.45,2.45,0,0,0,3.45-.39L58,85.13a2.46,2.46,0,0,0-.39-3.45l-4.21-3.35A2.45,2.45,0,0,0,49.91,78.72Zm6.71,4.16a.92.92,0,0,1,.14,1.29l-1.33,1.68a.93.93,0,0,1-1.3.15l-4.21-3.35a.93.93,0,0,1-.14-1.3l1.33-1.68a.93.93,0,0,1,1.3-.14Z" transform="translate(0)"/><path class="cls-2" d="M60.11,86.37,58.78,88a2.45,2.45,0,0,0,.39,3.45l4.2,3.35a2.45,2.45,0,0,0,3.45-.39l1.34-1.67a2.46,2.46,0,0,0-.4-3.45L63.56,86A2.45,2.45,0,0,0,60.11,86.37Zm6.7,4.16A.92.92,0,0,1,67,91.82L65.62,93.5a.91.91,0,0,1-1.29.14l-4.21-3.35A.92.92,0,0,1,60,89l1.34-1.68a.91.91,0,0,1,1.29-.14Z" transform="translate(0)"/><path class="cls-2" d="M70.32,93.75l-1,1.91A2.45,2.45,0,0,0,70.4,99l4.79,2.46a2.45,2.45,0,0,0,3.3-1.06l1-1.9a2.45,2.45,0,0,0-1.06-3.31l-4.78-2.46A2.46,2.46,0,0,0,70.32,93.75Zm7.39,2.76a.94.94,0,0,1,.4,1.25l-1,1.9a.93.93,0,0,1-1.24.4L71.1,97.6a.91.91,0,0,1-.39-1.24l1-1.91a.93.93,0,0,1,1.24-.4Z" transform="translate(0)"/><path class="cls-2" d="M81.94,100.41l-.48,2.09a2.45,2.45,0,0,0,1.84,2.94l5.24,1.22a2.45,2.45,0,0,0,2.94-1.84l.48-2.08a2.45,2.45,0,0,0-1.83-2.95l-5.24-1.21A2.45,2.45,0,0,0,81.94,100.41Zm7.84.87a.92.92,0,0,1,.69,1.11L90,104.48a.93.93,0,0,1-1.11.69L83.64,104a.93.93,0,0,1-.69-1.11l.49-2.08a.91.91,0,0,1,1.1-.69Z" transform="translate(0)"/><rect class="cls-2" x="47.85" y="73.5" width="1.53" height="9.97" rx="0.71" transform="translate(-40.27 53.54) rotate(-42.55)"/><rect class="cls-2" x="57.73" y="81.77" width="1.53" height="9.97" rx="0.71" transform="translate(-46.05 82.45) rotate(-53.65)"/><rect class="cls-2" x="67.92" y="89.02" width="1.53" height="9.97" rx="0.71" transform="translate(-47.07 106.49) rotate(-60)"/><rect class="cls-2" x="80.01" y="95.52" width="1.53" height="9.97" rx="0.71" transform="translate(-45.23 127.82) rotate(-63.44)"/></g></g></svg>