<svg xmlns="http://www.w3.org/2000/svg" xmlns:xlink="http://www.w3.org/1999/xlink" viewBox="0 0 136.39 188.34"><defs><style>.cls-1{fill:none;}.cls-2{fill:#edf5e1;}.cls-3{clip-path:url(#clip-path);}.cls-4{fill:#d7dece;}.cls-5{fill:#3bff9e;}.cls-6{fill:#fff;}</style><clipPath id="clip-path"><path id="SVGID" class="cls-1" d="M41.25,68.74c2.51-3.47,7.31-2.24,9.91-6.18,2.79-4.21-.79-9.43,2.73-13.79a8.87,8.87,0,0,1,3.59-2.58A7.31,7.31,0,0,1,57.05,41a7.19,7.19,0,0,1,2.29-3.45,78.83,78.83,0,0,1,1.8-11.7C63,18,64.84,15.49,66,14.23A17.42,17.42,0,0,1,69.76,11c-.25-1.92-.71-5.06,1.15-7.39.15-.2,1.59-1.62,2.55-1.19a2.89,2.89,0,0,1,1.36,2.82c.12-.61,1.07-2.67,4.24-4.6a3.06,3.06,0,0,1,3.81,0c.95.88.31,4.82-3.92,10.31C82,7,83.51,6.44,85.56,5.87a2.57,2.57,0,0,1,2.62.79c.59.94-.9,3.09-1.42,3.61-2,1.94-1.75,2-3.14,2.68a3.22,3.22,0,0,1,2.44,1.36c3.09,3,.2,12-6.61,22.83A6.5,6.5,0,0,1,81.39,42a6.11,6.11,0,0,1-1.15,3.16,5.19,5.19,0,0,1,1.22,3.09A5.33,5.33,0,0,1,80.1,52c.44.43,3.67,3.72,3.09,8.33a9.47,9.47,0,0,1-2,4.66,7.83,7.83,0,0,1-1,8.91,15.77,15.77,0,0,1,1.72,6.24,16.15,16.15,0,0,1-.28,4.1,11.32,11.32,0,0,1,1.5,4c.11.62.92,5.49-.93,6.75-2.5,1.7-6.66-5.31-15-7.11s-13.71.91-19.67-1.36C39.52,83.5,37.47,74,41.25,68.74Z"/></clipPath></defs><title>llama_logo</title><g id="Layer_2" data-name="Layer 2"><g id="Layer_3" data-name="Layer 3"><path class="cls-2" d="M41.25,68.74c2.51-3.47,7.31-2.24,9.91-6.18,2.79-4.21-.79-9.43,2.73-13.79a8.87,8.87,0,0,1,3.59-2.58A7.31,7.31,0,0,1,57.05,41a7.19,7.19,0,0,1,2.29-3.45,78.83,78.83,0,0,1,1.8-11.7C63,18,64.84,15.49,66,14.23A17.42,17.42,0,0,1,69.76,11c-.25-1.92-.71-5.06,1.15-7.39.15-.2,1.59-1.62,2.55-1.19a2.89,2.89,0,0,1,1.36,2.82c.12-.61,1.07-2.67,4.24-4.6a3.06,3.06,0,0,1,3.81,0c.95.88.31,4.82-3.92,10.31C82,7,83.51,6.44,85.56,5.87a2.57,2.57,0,0,1,2.62.79c.59.94-.9,3.09-1.42,3.61-2,1.94-1.75,2-3.14,2.68a3.22,3.22,0,0,1,2.44,1.36c3.09,3,.2,12-6.61,22.83A6.5,6.5,0,0,1,81.39,42a6.11,6.11,0,0,1-1.15,3.16,5.19,5.19,0,0,1,1.22,3.09A5.33,5.33,0,0,1,80.1,52c.44.43,3.67,3.72,3.09,8.33a9.47,9.47,0,0,1-2,4.66,7.83,7.83,0,0,1-1,8.91,15.77,15.77,0,0,1,1.72,6.24,16.15,16.15,0,0,1-.28,4.1,11.32,11.32,0,0,1,1.5,4c.11.62.92,5.49-.93,6.75-2.5,1.7-6.66-5.31-15-7.11s-13.71.91-19.67-1.36C39.52,83.5,37.47,74,41.25,68.74Z"/><g class="cls-3"><path class="cls-4" d="M87.1,29.06c-4.9-1.1-9.72.6-12.06,4.17-1.83,2.77-1.16,6.07-1,7.18A10.43,10.43,0,0,0,71.88,45a12.51,12.51,0,0,0,1.36,6.9A11.9,11.9,0,0,0,72,57.07a18.6,18.6,0,0,0,1.58,6c-.5,1.76-1.67,4-1.87,6.57-.25,3.24.86,5.07,1.22,7.22C72.41,78,71.1,80,71,82.56A14.36,14.36,0,0,0,73.24,91c.88,1.34,3.55,5.39,8.33,5.68a10.49,10.49,0,0,0,7.54-2.95,97.14,97.14,0,0,0,1.51-12.28c.71-12.24-1.24-19.19-2.59-35.11C87.69,42.33,87.27,36.37,87.1,29.06Z"/></g><path class="cls-5" d="M96.36,27.88a2.9,2.9,0,0,0,.43-1.69,3.31,3.31,0,0,0-1.22-2.12A46.31,46.31,0,0,0,87,18.18c-1.6-.84-5.54-2.87-7.33-2.22-.22.08-.85.07-1,.56s.16.63.5,1.31a3,3,0,0,1,.49,1.47.91.91,0,0,1-.63.85c-.69.26-1.27-.12-2.28,0-.41.07-.85.14-1,.47s.48.74.61,1.93a2.82,2.82,0,0,1-.19,1.23c-.31.73-1.53.49-2.51,1.45a1,1,0,0,0-.28,1c.09.3.58.43,3,1,.52.13.75.09.82.32.17.48-.8,1.23-1.11,1.47-1.22.94-2,.95-2,1.45s.72,1.06.85,1.13c1.3.73,2.26,0,3.69.65a3.86,3.86,0,0,1,1.22.9c2.11,1.91,6.46,1.75,7.47,1.68,3.68-.22,9.36-1.53,9.71-4.52A4.54,4.54,0,0,0,96.36,27.88Z"/><path d="M84.38,21.34A2.23,2.23,0,0,0,82,21.13,2.11,2.11,0,0,0,81,22.8a2.33,2.33,0,0,0,1.62,2.31,2.23,2.23,0,0,0,2.47-.62A2.37,2.37,0,0,0,84.38,21.34Z"/><ellipse class="cls-6" cx="82.97" cy="21.83" rx="0.48" ry="0.37"/><path class="cls-2" d="M2.62,185.88a2.58,2.58,0,0,1-.48-1.6V180q0-6.74-.54-15.19-.42-9-.42-15.19,0-5.77-.54-22.35Q0,112.29,0,104.91A1.12,1.12,0,0,1,.48,104a1.78,1.78,0,0,1,1.12-.38c1.29,0,1.93.54,1.93,1.61q0,19.78.32,29.63L4.39,154q0,4.49.64,14.65l.64,13.27a.29.29,0,0,0,.32.32,4.29,4.29,0,0,0,1.39.1H14c.93,0,1.39.65,1.39,1.93a2.89,2.89,0,0,1-.32,1.44,1,1,0,0,1-1,.59l-.75.11h-.85q-2.25.11-8.67.11A1.48,1.48,0,0,1,2.62,185.88Z"/><path class="cls-5" d="M45.84,185.35a1.65,1.65,0,0,1-.59-1.28v-14c0-.85-1.82-1.64-5.46-2.35a48.73,48.73,0,0,0-9-1.07c-.15,0-.38.53-.7,1.6s-.55,1.86-.69,2.36q-1.4,5.57-2.79,11.87l-.53,2.35a1,1,0,0,1-1.07.86,2.51,2.51,0,0,1-1.55-.53,1.58,1.58,0,0,1-.7-1.29l.11-.21v-.11l1.18-5.35q1.28-5,2.24-9.84c.72-3.64,1.25-6,1.61-7.06q.85-3.53,3.42-17.65L32,140.1q2.79-16.47,3.85-20.75.54-2.56,1.93-7.6a25.89,25.89,0,0,1,1.5-4.27c.64-1.22,1.17-1.82,1.6-1.82a2.78,2.78,0,0,1,2.46,1.07q.54,1,1.66,10.59t2,19.47l1.39,17.75q0,4.61.64,13.91c.43,6.27.64,11,.64,14v.43a6.54,6.54,0,0,1-.32,2.14c-.28.57-1,.85-2,.85A2,2,0,0,1,45.84,185.35Zm-.7-21.18q0-6.63-.75-18.13t-1.6-20.27c-.15-2.5-.43-5.24-.86-8.24l-.43-4.17c0,.07-.07-.32-.21-1.18l-.21-1.28a42.82,42.82,0,0,0-1.66,6.52q-.81,4.18-1.66,9.85-2.57,15.93-4.39,24l-1,3.63a31.09,31.09,0,0,0-1.6,8.13v.64a35.54,35.54,0,0,0,10.8,1.5h.64a2.47,2.47,0,0,0,.75.11C44.43,165.24,45.14,164.88,45.14,164.17Z"/><path class="cls-2" d="M94.61,187.65a4.17,4.17,0,0,1-.48-2.3v-9.73q0-7.27-.42-17.65c-.08-1.29-.11-3.14-.11-5.57q-.33-7.59-.32-12l.1-6q.11-2.67.11-6c0-1.92,0-3.64-.11-5.13-.07-1.07-.12-2-.16-2.68a14.72,14.72,0,0,0-.16-1.71l-.21.75q-1.18,7.81-3.53,20.54t-3.85,20.43c-1,4.56-1.64,7.81-1.93,9.73a4.52,4.52,0,0,1-.91,2.25,2,2,0,0,1-1.55.86,1.86,1.86,0,0,1-1.5-.86,4.63,4.63,0,0,1-.74-2.46q-.75-5.13-5.46-28.67T68.14,117.1q-.31,9.63-.32,21.61,0,9.42.11,17t.1,17c0,1.07.11,2.74.32,5l.22,5.13a3.92,3.92,0,0,1-.75,2.78q-3.1,0-3.1-5.56V162.24l.1-10.8q.11-4.81.11-10.91,0-7.07.11-12.62l.21-12.73v-9.42a1.28,1.28,0,0,1,.48-1,1.54,1.54,0,0,1,1-.43,1.19,1.19,0,0,1,1.18.86q1,3.21,4.81,18.93t5.78,24.29q1,5,3.1,17.75l.75-4.17q.31-1.92,1-5.35c.85-5.56,1.39-8.7,1.6-9.41l4.92-26.21,1-5.56,1.17-6,.54-3.21a2.79,2.79,0,0,1,.64-1.66,1.59,1.59,0,0,1,1.18-.59,1.24,1.24,0,0,1,1,.54,2.36,2.36,0,0,1,.43,1.49v10.6q0,8,1,24.28.75,15,.75,24.07,0,2.88.32,8.87.21,7.71.21,10.7a9.3,9.3,0,0,1-.32,3.1,1.33,1.33,0,0,1-1.17.64A2.16,2.16,0,0,1,94.61,187.65Z"/><path class="cls-5" d="M113.33,185.35a1.65,1.65,0,0,0,.59-1.28v-14c0-.85,1.82-1.64,5.46-2.35a48.73,48.73,0,0,1,9-1.07c.15,0,.38.53.7,1.6s.55,1.86.69,2.36q1.4,5.57,2.78,11.87l.54,2.35a1,1,0,0,0,1.07.86,2.51,2.51,0,0,0,1.55-.53,1.58,1.58,0,0,0,.7-1.29l-.11-.21v-.11l-1.18-5.35q-1.28-5-2.24-9.84c-.72-3.64-1.25-6-1.61-7.06q-.85-3.53-3.42-17.65l-.64-3.53q-2.79-16.47-3.85-20.75-.54-2.56-1.93-7.6a25.89,25.89,0,0,0-1.5-4.27c-.64-1.22-1.17-1.82-1.6-1.82a2.78,2.78,0,0,0-2.46,1.07q-.54,1-1.66,10.59t-2,19.47l-1.39,17.75q0,4.61-.64,13.91c-.43,6.27-.64,11-.64,14v.43a6.54,6.54,0,0,0,.32,2.14c.28.57,1,.85,2,.85A2,2,0,0,0,113.33,185.35Zm.7-21.18q0-6.63.75-18.13t1.6-20.27c.15-2.5.43-5.24.86-8.24l.43-4.17c0,.07.07-.32.21-1.18l.21-1.28a44,44,0,0,1,1.66,6.52q.81,4.18,1.66,9.85,2.57,15.93,4.39,24l1,3.63a31.09,31.09,0,0,1,1.6,8.13v.64a35.54,35.54,0,0,1-10.8,1.5h-.64a2.47,2.47,0,0,1-.75.11C114.74,165.24,114,164.88,114,164.17Z"/></g></g></svg>