<svg xmlns="http://www.w3.org/2000/svg" viewBox="0 0 242.71 371.22"><defs><style>.cls-1{fill:#edf5e1;}</style></defs><title>hoof_filled</title><g id="Layer_2" data-name="Layer 2"><g id="Layer_4" data-name="Layer 4"><path class="cls-1" d="M231.59,266.22S214.35,316,173,347.92c-3.77,2.91-9.83,7.21-17.71,7.15-12.51-.1-22.56-11.16-29.17-20.69-1.06,2.09-2.2,4.16-3.39,6.2-5.14,8.78-17.85,30.5-35.4,30.64-7.88.06-13.94-4.24-17.71-7.15-41.31-31.94-58.55-81.7-58.55-81.7-3.17-9.15-15.43-46.63-9.53-95.66.9-7.47,5.25-23.48,14-55.49,0,0,14.62-53.79,46.29-103.83,2.4-3.78,7.27-11.11,14-11.24,6.22-.11,11,6.06,12.6,8.17,7.2,9.36,5.72,18.53,7.83,30.64C98.66,69,104,76.16,109.15,86.62a231.83,231.83,0,0,1,9.52,23.2c5-16.27,10.34-30.08,14.88-39.35C138.68,60,144,52.88,146.48,38.81c2.11-12.11.63-21.28,7.83-30.64,1.63-2.11,6.38-8.28,12.6-8.17,6.69.13,11.56,7.46,14,11.24,31.67,50,46.29,103.83,46.29,103.83,8.71,32,13.06,48,14,55.49C247,219.59,234.76,257.07,231.59,266.22Z"/></g></g></svg>