<svg xmlns="http://www.w3.org/2000/svg" xmlns:xlink="http://www.w3.org/1999/xlink" viewBox="0 0 44.77 75.24"><defs><style>.cls-1{fill:none;}.cls-2{fill:#edf5e1;}.cls-3{clip-path:url(#clip-path);}.cls-4{fill:#d7dece;}.cls-5{fill:#3bff9e;}.cls-6{fill:#fff;}</style><clipPath id="clip-path" transform="translate(0)"><path id="SVGID" class="cls-1" d="M1.43,53.47c2-2.7,5.68-1.74,7.71-4.8,2.17-3.28-.61-7.34,2.12-10.73a6.94,6.94,0,0,1,2.79-2,5.73,5.73,0,0,1-.33-4,5.55,5.55,0,0,1,1.78-2.68,61.87,61.87,0,0,1,1.4-9.11c1.42-6.11,2.88-8.07,3.74-9a13.9,13.9,0,0,1,3-2.51c-.19-1.5-.55-3.94.9-5.76.12-.14,1.24-1.26,2-.92a2.24,2.24,0,0,1,1.06,2.2c.1-.48.84-2.08,3.3-3.58a2.39,2.39,0,0,1,3,0c.73.68.24,3.74-3.06,8,2.39-3.1,3.55-3.55,5.14-4a2,2,0,0,1,2,.62c.47.73-.7,2.41-1.1,2.81-1.53,1.51-1.36,1.58-2.44,2.08a2.53,2.53,0,0,1,1.89,1.06c2.41,2.31.16,9.36-5.13,17.76a5.11,5.11,0,0,1,1.5,3.8,4.77,4.77,0,0,1-.89,2.46,4.06,4.06,0,0,1,.95,2.4,4.16,4.16,0,0,1-1.06,2.9,8.18,8.18,0,0,1,2.4,6.48,7.35,7.35,0,0,1-1.56,3.64,6.07,6.07,0,0,1-.79,6.92,12.26,12.26,0,0,1,1.12,8.05A8.7,8.7,0,0,1,34,68.66c.09.49.72,4.27-.72,5.26-1.94,1.32-5.18-4.14-11.68-5.53s-10.66.7-15.3-1.07C.08,65-1.51,57.52,1.43,53.47Z"/></clipPath></defs><title>LAMA Image</title><g id="Layer_2" data-name="Layer 2"><g id="Layer_3" data-name="Layer 3"><path class="cls-2" d="M1.43,53.47c2-2.7,5.68-1.74,7.71-4.8,2.17-3.28-.61-7.34,2.12-10.73a6.94,6.94,0,0,1,2.79-2,5.73,5.73,0,0,1-.33-4,5.55,5.55,0,0,1,1.78-2.68,61.87,61.87,0,0,1,1.4-9.11c1.42-6.11,2.88-8.07,3.74-9a13.9,13.9,0,0,1,3-2.51c-.19-1.5-.55-3.94.9-5.76.12-.14,1.24-1.26,2-.92a2.24,2.24,0,0,1,1.06,2.2c.1-.48.84-2.08,3.3-3.58a2.39,2.39,0,0,1,3,0c.73.68.24,3.74-3.06,8,2.39-3.1,3.55-3.55,5.14-4a2,2,0,0,1,2,.62c.47.73-.7,2.41-1.1,2.81-1.53,1.51-1.36,1.58-2.44,2.08a2.53,2.53,0,0,1,1.89,1.06c2.41,2.31.16,9.36-5.13,17.76a5.11,5.11,0,0,1,1.5,3.8,4.77,4.77,0,0,1-.89,2.46,4.06,4.06,0,0,1,.95,2.4,4.16,4.16,0,0,1-1.06,2.9,8.18,8.18,0,0,1,2.4,6.48,7.35,7.35,0,0,1-1.56,3.64,6.07,6.07,0,0,1-.79,6.92,12.26,12.26,0,0,1,1.12,8.05A8.7,8.7,0,0,1,34,68.66c.09.49.72,4.27-.72,5.26-1.94,1.32-5.18-4.14-11.68-5.53s-10.66.7-15.3-1.07C.08,65-1.51,57.52,1.43,53.47Z" transform="translate(0)"/><g class="cls-3"><path class="cls-4" d="M37.09,22.61c-3.81-.86-7.55.46-9.38,3.24-1.42,2.15-.9,4.72-.78,5.58A8.17,8.17,0,0,0,25.25,35a9.77,9.77,0,0,0,1.06,5.36,9.59,9.59,0,0,0-.95,4A14.94,14.94,0,0,0,26.59,49c-.38,1.37-1.3,3.15-1.45,5.11-.2,2.52.67,3.94.95,5.61a11,11,0,0,0-1.51,4.47,11.2,11.2,0,0,0,1.73,6.6c.69,1,2.77,4.18,6.48,4.41a8.16,8.16,0,0,0,5.87-2.29,75,75,0,0,0,1.17-9.55c.56-9.53-1-14.93-2-27.32C37.55,32.93,37.23,28.3,37.09,22.61Z" transform="translate(0)"/></g><path class="cls-5" d="M44.3,21.69a2.34,2.34,0,0,0,.34-1.32,2.61,2.61,0,0,0-1-1.64A35.87,35.87,0,0,0,37,14.14c-1.24-.65-4.3-2.23-5.69-1.73-.17.06-.67.06-.77.44s.12.49.38,1A2.35,2.35,0,0,1,31.29,15a.73.73,0,0,1-.5.67c-.53.2-1-.1-1.77,0-.32,0-.66.11-.81.36s.37.57.47,1.51a2.08,2.08,0,0,1-.14,1c-.24.57-1.19.38-1.95,1.13a.75.75,0,0,0-.22.77c.07.24.45.34,2.35.81.4.1.58.07.64.25.13.38-.63,1-.87,1.15-.94.73-1.52.74-1.58,1.13s.56.82.66.88c1,.56,1.76,0,2.88.5a3.36,3.36,0,0,1,.95.7c1.63,1.48,5,1.36,5.81,1.31,2.86-.17,7.28-1.19,7.55-3.52A3.53,3.53,0,0,0,44.3,21.69Z" transform="translate(0)"/><path d="M35,16.6a1.75,1.75,0,0,0-1.82-.17,1.66,1.66,0,0,0-.84,1.3,1.81,1.81,0,0,0,1.26,1.8,1.72,1.72,0,0,0,1.92-.48A1.83,1.83,0,0,0,35,16.6Z" transform="translate(0)"/><ellipse class="cls-6" cx="33.88" cy="16.98" rx="0.38" ry="0.29"/></g></g></svg>