<svg xmlns="http://www.w3.org/2000/svg" viewBox="0 0 264.71 393.22"><defs><style>.cls-1{fill:none;stroke:#edf5e1;stroke-miterlimit:10;stroke-width:22px;}</style></defs><title>hoof_outline</title><g id="Layer_2" data-name="Layer 2"><g id="Layer_4" data-name="Layer 4"><path class="cls-1" d="M242.59,277.22S225.35,327,184,358.92c-3.77,2.91-9.83,7.21-17.71,7.15-12.51-.1-22.56-11.16-29.17-20.69-1.06,2.09-2.2,4.16-3.39,6.2-5.14,8.78-17.85,30.5-35.4,30.64-7.88.06-13.94-4.24-17.71-7.15-41.31-31.94-58.55-81.7-58.55-81.7-3.17-9.15-15.43-46.63-9.53-95.66.9-7.47,5.25-23.48,14-55.49,0,0,14.62-53.79,46.29-103.83,2.4-3.78,7.27-11.11,14-11.24,6.22-.11,11,6.06,12.6,8.17,7.2,9.36,5.72,18.53,7.83,30.64,2.44,14.07,7.8,21.2,12.93,31.66a231.83,231.83,0,0,1,9.52,23.2c5-16.27,10.34-30.08,14.88-39.35C149.68,71,155,63.88,157.48,49.81c2.11-12.11.63-21.28,7.83-30.64,1.63-2.11,6.38-8.28,12.6-8.17,6.69.13,11.56,7.46,14,11.24,31.67,50,46.29,103.83,46.29,103.83,8.71,32,13.06,48,14,55.49C258,230.59,245.76,268.07,242.59,277.22Z"/></g></g></svg>