<svg xmlns="http://www.w3.org/2000/svg" xmlns:xlink="http://www.w3.org/1999/xlink" viewBox="0 0 241.94 241.94"><defs><style>.cls-1{fill:none;}.cls-2{fill:#171d22;}.cls-3{fill:#edf5e1;}.cls-4{clip-path:url(#clip-path);}.cls-5{fill:#d7dece;}.cls-6{fill:#3bff9e;}.cls-7{fill:#fff;}</style><clipPath id="clip-path"><path id="SVGID" class="cls-1" d="M70.21,160.71C75,154.17,84,156.48,88.88,149.07c5.25-7.94-1.48-17.77,5.14-26a16.68,16.68,0,0,1,6.76-4.87,13.78,13.78,0,0,1-.81-9.74A13.52,13.52,0,0,1,104.3,102a148.19,148.19,0,0,1,3.38-22c3.44-14.81,7-19.54,9.07-21.92A32.59,32.59,0,0,1,123.92,52c-.47-3.62-1.34-9.54,2.16-13.94.29-.36,3-3,4.8-2.23a5.43,5.43,0,0,1,2.57,5.31c.23-1.15,2-5,8-8.66,2.37-1.44,5.15-1.8,7.18.09,1.78,1.66.58,9.08-7.39,19.43,5.78-7.51,8.59-8.59,12.44-9.67,1.72-.49,4.1.16,4.94,1.48,1.13,1.78-1.69,5.83-2.67,6.8-3.71,3.67-3.29,3.83-5.92,5.06,2.7.15,3.54,1.53,4.6,2.55,5.82,5.6.39,22.68-12.44,43a12.32,12.32,0,0,1,3.65,9.19,11.56,11.56,0,0,1-2.17,6,9.79,9.79,0,0,1,2.3,5.81,10,10,0,0,1-2.57,7c.84.82,6.92,7,5.82,15.69a17.75,17.75,0,0,1-3.79,8.79,14.74,14.74,0,0,1-1.89,16.78,30,30,0,0,1,3.25,11.76,29.47,29.47,0,0,1-.55,7.71,21.41,21.41,0,0,1,2.85,7.58c.19,1.18,1.72,10.34-1.76,12.72-4.71,3.2-12.54-10-28.27-13.4-15.51-3.33-25.84,1.71-37.07-2.57C67,188.52,63.09,170.52,70.21,160.71Z"/></clipPath></defs><title>logo_tab</title><g id="Layer_2" data-name="Layer 2"><g id="Layer_3" data-name="Layer 3"><circle class="cls-2" cx="120.97" cy="120.97" r="120.97"/><path class="cls-3" d="M70.21,160.71C75,154.17,84,156.48,88.88,149.07c5.25-7.94-1.48-17.77,5.14-26a16.68,16.68,0,0,1,6.76-4.87,13.78,13.78,0,0,1-.81-9.74A13.52,13.52,0,0,1,104.3,102a148.19,148.19,0,0,1,3.38-22c3.44-14.81,7-19.54,9.07-21.92A32.59,32.59,0,0,1,123.92,52c-.47-3.62-1.34-9.54,2.16-13.94.29-.36,3-3,4.8-2.23a5.43,5.43,0,0,1,2.57,5.31c.23-1.15,2-5,8-8.66,2.37-1.44,5.15-1.8,7.18.09,1.78,1.66.58,9.08-7.39,19.43,5.78-7.51,8.59-8.59,12.44-9.67,1.72-.49,4.1.16,4.94,1.48,1.13,1.78-1.69,5.83-2.67,6.8-3.71,3.67-3.29,3.83-5.92,5.06,2.7.15,3.54,1.53,4.6,2.55,5.82,5.6.39,22.68-12.44,43a12.32,12.32,0,0,1,3.65,9.19,11.56,11.56,0,0,1-2.17,6,9.79,9.79,0,0,1,2.3,5.81,10,10,0,0,1-2.57,7c.84.82,6.92,7,5.82,15.69a17.75,17.75,0,0,1-3.79,8.79,14.74,14.74,0,0,1-1.89,16.78,30,30,0,0,1,3.25,11.76,29.47,29.47,0,0,1-.55,7.71,21.41,21.41,0,0,1,2.85,7.58c.19,1.18,1.72,10.34-1.76,12.72-4.71,3.2-12.54-10-28.27-13.4-15.51-3.33-25.84,1.71-37.07-2.57C67,188.52,63.09,170.52,70.21,160.71Z"/><g class="cls-4"><path class="cls-5" d="M156.58,86c-9.23-2.08-18.3,1.12-22.72,7.84-3.44,5.22-2.17,11.44-1.9,13.53-1.1,1.81-3.5,4.43-4.05,8.66-.78,6,1.64,10.92,2.57,13-.77,2.05-2.46,5.3-2.3,9.74.15,4.22,2.11,9.27,3,11.23-.93,3.33-3.14,7.64-3.51,12.38-.48,6.11,1.62,9.55,2.29,13.59-1,2.29-3.48,6-3.65,10.83a27,27,0,0,0,4.2,16c1.66,2.51,6.68,10.14,15.69,10.68,7.55.46,12.94-4.35,14.2-5.54a181.39,181.39,0,0,0,2.84-23.13c1.35-23.07-2.33-36.15-4.87-66.15C157.7,111,156.91,99.74,156.58,86Z"/></g><path class="cls-6" d="M174,83.74a5.35,5.35,0,0,0,.81-3.18,6.31,6.31,0,0,0-2.29-4c-6.28-5.9-16.24-11.1-16.24-11.1-3-1.58-10.42-5.41-13.8-4.19-.41.15-1.6.15-1.86,1.07-.18.66.29,1.18.94,2.46a5.59,5.59,0,0,1,.92,2.76,1.69,1.69,0,0,1-1.19,1.61c-1.29.5-2.39-.23-4.28.08-.78.13-1.62.26-2,.88-.43.78.91,1.39,1.15,3.65a5,5,0,0,1-.36,2.3c-.57,1.38-2.89.92-4.72,2.74a1.84,1.84,0,0,0-.53,1.87c.16.57,1.1.83,5.68,2,1,.25,1.41.17,1.56.6.31.91-1.51,2.32-2.1,2.78-2.29,1.77-3.68,1.8-3.82,2.74s1.35,2,1.59,2.13c2.46,1.36,4.26,0,7,1.21a8,8,0,0,1,2.3,1.69c4,3.6,12.15,3.3,14.06,3.18,6.94-.41,17.63-2.89,18.3-8.52A8.62,8.62,0,0,0,174,83.74Z"/><path d="M151.46,71.43a4.2,4.2,0,0,0-4.41-.41,4,4,0,0,0-2,3.15,4.41,4.41,0,0,0,3,4.36,4.25,4.25,0,0,0,4.67-1.17C154.1,75.54,153.22,72.71,151.46,71.43Z"/><ellipse class="cls-7" cx="148.81" cy="72.35" rx="0.91" ry="0.69"/></g></g></svg>