<?xml version="1.0" encoding="utf-8"?>
<!-- Generator: Adobe Illustrator 23.0.1, SVG Export Plug-In . SVG Version: 6.00 Build 0)  -->
<svg version="1.1" id="Layer_1" focusable="false" xmlns="http://www.w3.org/2000/svg" xmlns:xlink="http://www.w3.org/1999/xlink"
	 x="0px" y="0px" viewBox="0 0 512 512" style="enable-background:new 0 0 512 512;" xml:space="preserve">
<style type="text/css">
	.st0{fill:#171D22;}
</style>
<path class="st0" d="M390.7,357l-53.9-53.9c-2.4-2.4-5.7-3.8-9.2-3.8h-8.8c14.9-19.1,23.8-43.1,23.8-69.2
	c0-62.2-50.4-112.5-112.5-112.5S117.5,167.9,117.5,230S167.9,342.5,230,342.5c26.1,0,50.1-8.9,69.2-23.8v8.8c0,3.5,1.4,6.8,3.8,9.2
	l53.9,53.9c5.1,5.1,13.3,5.1,18.3,0l15.3-15.3C395.7,370.3,395.7,362.1,390.7,357z M230,299.3c-38.2,0-69.2-30.9-69.2-69.2
	c0-38.2,30.9-69.2,69.2-69.2c38.2,0,69.2,30.9,69.2,69.2C299.3,268.3,268.3,299.3,230,299.3z"/>
</svg>
