<svg xmlns="http://www.w3.org/2000/svg" xmlns:xlink="http://www.w3.org/1999/xlink" viewBox="0 0 119.86 201.42"><defs><style>.cls-1{fill:none;}.cls-2{fill:#edf5e1;}.cls-3{clip-path:url(#clip-path);}.cls-4{fill:#d7dece;}.cls-5{fill:#0092cb;}.cls-6{fill:#fff;}</style><clipPath id="clip-path" transform="translate(0)"><path class="cls-1" d="M3.82,143.14c5.24-7.22,15.22-4.67,20.64-12.86,5.8-8.77-1.63-19.64,5.68-28.71a18.39,18.39,0,0,1,7.48-5.38,15.25,15.25,0,0,1-.9-10.77,14.93,14.93,0,0,1,4.79-7.18,164,164,0,0,1,3.73-24.37C49,37.5,53,32.27,55.26,29.64a36.43,36.43,0,0,1,7.93-6.73c-.51-4-1.48-10.54,2.39-15.4.32-.4,3.32-3.38,5.31-2.47a6,6,0,0,1,2.84,5.87C74,9.64,76,5.35,82.56,1.33c2.62-1.59,5.7-2,7.94.1,2,1.83.64,10-8.17,21.48,6.4-8.3,9.49-9.49,13.76-10.69,1.9-.54,4.53.18,5.46,1.64,1.24,2-1.87,6.45-3,7.52C94.5,25.43,95,25.61,92.05,27c3,.17,3.91,1.69,5.09,2.82,6.43,6.19.42,25.07-13.76,47.55a13.67,13.67,0,0,1,4,10.17A12.71,12.71,0,0,1,85,94.09a10.86,10.86,0,0,1,2.54,6.43,11,11,0,0,1-2.84,7.78c.93.91,7.65,7.77,6.43,17.35A19.73,19.73,0,0,1,87,135.37a16.3,16.3,0,0,1-2.1,18.54,33,33,0,0,1,3.59,13,32.3,32.3,0,0,1-.6,8.52A23.43,23.43,0,0,1,91,183.82c.22,1.3,1.91,11.43-1.94,14.05-5.2,3.55-13.86-11.06-31.25-14.8-17.14-3.69-28.56,1.89-41-2.84C.22,173.9-4,154,3.82,143.14Z"/></clipPath></defs><title>cool-llama</title><g id="Layer_2" data-name="Layer 2"><g id="Layer_3" data-name="Layer 3"><path class="cls-2" d="M3.82,143.14c5.24-7.22,15.22-4.67,20.64-12.86,5.8-8.77-1.63-19.64,5.68-28.71a18.39,18.39,0,0,1,7.48-5.38,15.25,15.25,0,0,1-.9-10.77,14.93,14.93,0,0,1,4.79-7.18,164,164,0,0,1,3.73-24.37C49,37.5,53,32.27,55.26,29.64a36.43,36.43,0,0,1,7.93-6.73c-.51-4-1.48-10.54,2.39-15.4.32-.4,3.32-3.38,5.31-2.47a6,6,0,0,1,2.84,5.87C74,9.64,76,5.35,82.56,1.33c2.62-1.59,5.7-2,7.94.1,2,1.83.64,10-8.17,21.48,6.4-8.3,9.49-9.49,13.76-10.69,1.9-.54,4.53.18,5.46,1.64,1.24,2-1.87,6.45-3,7.52C94.5,25.43,95,25.61,92.05,27c3,.17,3.91,1.69,5.09,2.82,6.43,6.19.42,25.07-13.76,47.55a13.67,13.67,0,0,1,4,10.17A12.71,12.71,0,0,1,85,94.09a10.86,10.86,0,0,1,2.54,6.43,11,11,0,0,1-2.84,7.78c.93.91,7.65,7.77,6.43,17.35A19.73,19.73,0,0,1,87,135.37a16.3,16.3,0,0,1-2.1,18.54,33,33,0,0,1,3.59,13,32.3,32.3,0,0,1-.6,8.52A23.43,23.43,0,0,1,91,183.82c.22,1.3,1.91,11.43-1.94,14.05-5.2,3.55-13.86-11.06-31.25-14.8-17.14-3.69-28.56,1.89-41-2.84C.22,173.9-4,154,3.82,143.14Z" transform="translate(0)"/><g class="cls-3"><path class="cls-4" d="M99.3,60.52c-10.21-2.29-20.23,1.24-25.12,8.67-3.79,5.77-2.4,12.65-2.09,15-1.22,2-3.88,4.9-4.49,9.57-.86,6.59,1.82,12.07,2.84,14.36-.84,2.26-2.72,5.85-2.54,10.76.17,4.66,2.34,10.24,3.29,12.41-1,3.68-3.48,8.45-3.89,13.69-.53,6.75,1.8,10.56,2.54,15-1.13,2.52-3.85,6.58-4,12a29.8,29.8,0,0,0,4.63,17.65c1.84,2.78,7.4,11.2,17.35,11.81,8.35.51,14.31-4.82,15.7-6.13a200.71,200.71,0,0,0,3.14-25.57c1.49-25.51-2.57-40-5.38-73.13C100.54,88.15,99.67,75.75,99.3,60.52Z" transform="translate(0)"/></g><path class="cls-5" d="M119.82,63.29c-.73,6.23-12.55,9-20.22,9.41-2.11.14-11.17.48-15.55-3.51a8.92,8.92,0,0,0-2.54-1.86c-3-1.36-5,.16-7.7-1.36-.26-.14-1.92-1.23-1.76-2.35s1.69-1.06,4.22-3c.65-.5,2.19-1.69,1.85-2.69-.17-.47-.16-.77-1.25-1-5.07-1.25-6.1-1.53-6.28-2.17a2,2,0,0,1,.59-2.06c2-2,4.58-1.5,5.22-3a5.61,5.61,0,0,0,.39-2.56,8,8,0,0,0-1.25-3.24c2.24.39,4.83.87,7.85,1.46a6.8,6.8,0,0,0,1,2.83,9.64,9.64,0,0,0,3.37,3.35c3.75,2.36,9,0,11.89-4,1.3-1.8-1.45-5.74-2.1-6.82a4.49,4.49,0,0,1,3.05-1.28,3.93,3.93,0,0,1,1.44.2l1.22.72,0,0c1.09.64,2.34,1.41,3.66,2.25a71.7,71.7,0,0,1,10,7.57,7,7,0,0,1,2.54,4.41,6,6,0,0,1-.9,3.51A9.48,9.48,0,0,1,119.82,63.29Z" transform="translate(0)"/><path class="cls-5" d="M97.6,40.65c.65,1.08,3.4,5,2.1,6.82-2.88,4-8.14,6.34-11.89,4a9.64,9.64,0,0,1-3.37-3.35,6.8,6.8,0,0,1-1-2.83c-3-.59-5.61-1.07-7.85-1.46h0a.76.76,0,0,1,0-.77c.37-.69,1.31-.84,2.17-1a8.09,8.09,0,0,1,2.42,0h0a4.47,4.47,0,0,0,2.3-.1,1.88,1.88,0,0,0,1.32-1.78,6.36,6.36,0,0,0-1-3.06c-.72-1.4-1.24-2-1-2.71.29-1,1.61-1,2.06-1.18,3.17-1.15,9.56,1.74,13.45,3.7l1.8.93s1.21.63,3.09,1.71a3.93,3.93,0,0,0-1.44-.2A4.49,4.49,0,0,0,97.6,40.65Z" transform="translate(0)"/><path d="M107,42.56c-1.32-.84-2.57-1.61-3.66-2.25l0,0a3.68,3.68,0,0,0-1.22-.72,3.93,3.93,0,0,0-1.44-.2,4.49,4.49,0,0,0-3.05,1.28c.65,1.08,3.4,5,2.1,6.82-2.88,4-8.14,6.34-11.89,4A7.77,7.77,0,0,1,85,48.37a6.79,6.79,0,0,1-.94-3c-3-.59-6.23-1.14-8.47-1.53h0c-9.52-1.65-12.48-1.63-13.36-1a4.33,4.33,0,0,0-1.32,1.85c-.45,1.19-.48,2.94-1.45,2.76a1.42,1.42,0,0,1-1-.56c-.94-1.37-.05-3.36.19-4a4.06,4.06,0,0,1,3.22-3,9.07,9.07,0,0,1,2.83-.22c2.46.33,7.89,1.24,15.43,2.35h0l3.72.54a13.73,13.73,0,0,1,5.3-3.67,14.22,14.22,0,0,1,6.21-.62A7.22,7.22,0,0,1,97.86,37a6,6,0,0,1,2.45-.39,7.37,7.37,0,0,1,5.51,2.85A5.37,5.37,0,0,1,107,42.56Z" transform="translate(0)"/><path class="cls-6" d="M89.14,41.49c-.35-.38-1.74.24-2.71,1.48a3.08,3.08,0,0,0-.7,1.67c0,.28-.09,1.06.45,1.34a1.25,1.25,0,0,0,1.54-.49c.32-.55.19-.9.46-1.55s.7-.64,1.14-1.54A1.08,1.08,0,0,0,89.14,41.49Z" transform="translate(0)"/></g></g></svg>