<svg xmlns="http://www.w3.org/2000/svg" viewBox="0 0 106.09 65.9"><defs><style>.cls-1{fill:#edf5e1;}.cls-2{fill:#3bff9e;}</style></defs><title>LAMA Letters</title><g id="Layer_2" data-name="Layer 2"><g id="Layer_3" data-name="Layer 3"><path class="cls-1" d="M2,64a2,2,0,0,1-.38-1.25V59.41q0-5.23-.41-11.81-.33-7-.33-11.82Q.92,31.3.5,18.39,0,6.74,0,1A.9.9,0,0,1,.37.29,1.43,1.43,0,0,1,1.25,0c1,0,1.5.42,1.5,1.25q0,15.39.25,23.05l.41,14.89q0,3.5.5,11.4l.5,10.32a.22.22,0,0,0,.25.25,3.1,3.1,0,0,0,1.08.08H10.9q1.08,0,1.08,1.5a2.3,2.3,0,0,1-.25,1.13.79.79,0,0,1-.75.45l-.58.09H9.74Q8,64.48,3,64.49A1.16,1.16,0,0,1,2,64Z"/><path class="cls-2" d="M35.66,63.57a1.27,1.27,0,0,1-.46-1V51.67q0-1-4.25-1.83A38,38,0,0,0,24,49c-.11,0-.29.42-.54,1.25s-.43,1.44-.54,1.83c-.72,2.89-1.44,6-2.16,9.24l-.42,1.83a.78.78,0,0,1-.83.66,1.94,1.94,0,0,1-1.21-.41,1.23,1.23,0,0,1-.54-1l.09-.17v-.08L18.72,58q1-3.91,1.75-7.66a54.31,54.31,0,0,1,1.25-5.49q.66-2.74,2.66-13.73l.5-2.74q2.16-12.82,3-16.15.4-2,1.49-5.91A20.26,20.26,0,0,1,30.54,3c.5-1,.91-1.42,1.25-1.42a2.18,2.18,0,0,1,1.91.83q.42.75,1.29,8.24T36.53,25.8l1.08,13.81q0,3.57.5,10.82t.5,10.9v.33a5.12,5.12,0,0,1-.25,1.66c-.22.45-.75.67-1.58.67A1.57,1.57,0,0,1,35.66,63.57ZM35.11,47.1q0-5.16-.58-14.11T33.28,17.23c-.11-2-.33-4.08-.66-6.41l-.33-3.25a7.74,7.74,0,0,1-.17-.91l-.17-1a35.76,35.76,0,0,0-1.29,5.07Q30,14,29.37,18.39,27.38,30.8,26,37l-.75,2.83A24.26,24.26,0,0,0,24,46.18v.5a27.7,27.7,0,0,0,8.41,1.17h.5a2,2,0,0,0,.58.08C34.56,47.93,35.11,47.65,35.11,47.1Z"/><path class="cls-1" d="M73.6,65.36a3.23,3.23,0,0,1-.37-1.79V56q0-5.66-.34-13.73c0-1-.08-2.44-.08-4.33q-.25-5.89-.25-9.32L72.64,24c.06-1.39.09-2.94.09-4.66,0-1.5,0-2.83-.09-4,0-.83-.09-1.52-.12-2.08a11.45,11.45,0,0,0-.13-1.33l-.16.58q-.92,6.07-2.75,16t-3,15.89c-.78,3.55-1.28,6.08-1.5,7.57a3.54,3.54,0,0,1-.71,1.75,1.53,1.53,0,0,1-1.21.67,1.42,1.42,0,0,1-1.16-.67,3.52,3.52,0,0,1-.58-1.91q-.59-4-4.25-22.3T53,10.49q-.25,7.49-.25,16.8,0,7.34.08,13.23t.08,13.23c0,.84.09,2.14.25,3.92l.17,4a3.09,3.09,0,0,1-.58,2.16q-2.41,0-2.42-4.32V45.6l.09-8.4q.07-3.75.08-8.49c0-3.66,0-6.94.08-9.82L50.76,9V1.66a1,1,0,0,1,.37-.74,1.16,1.16,0,0,1,.79-.34.93.93,0,0,1,.92.67Q53.59,3.74,56.58,16t4.5,18.89q.75,3.9,2.41,13.81l.58-3.25c.17-1,.42-2.38.75-4.16C65.49,37,65.9,34.51,66.07,34L69.9,13.56l.75-4.32.91-4.66L72,2.08a2.16,2.16,0,0,1,.5-1.29,1.23,1.23,0,0,1,.91-.46,1,1,0,0,1,.75.42,1.82,1.82,0,0,1,.33,1.16v8.24q0,6.24.75,18.89.59,11.66.59,18.72,0,2.25.25,6.91c.11,4,.16,6.77.16,8.32A7.22,7.22,0,0,1,76,65.4a1,1,0,0,1-.91.5A1.66,1.66,0,0,1,73.6,65.36Z"/><path class="cls-2" d="M88.16,63.57a1.27,1.27,0,0,0,.46-1V51.67q0-1,4.24-1.83a38.16,38.16,0,0,1,7-.83c.11,0,.29.42.54,1.25s.43,1.44.54,1.83c.73,2.89,1.45,6,2.17,9.24l.41,1.83a.79.79,0,0,0,.84.66,1.9,1.9,0,0,0,1.2-.41,1.23,1.23,0,0,0,.54-1l-.08-.17v-.08L105.1,58q-1-3.91-1.75-7.66c-.56-2.83-1-4.66-1.25-5.49q-.66-2.74-2.66-13.73l-.5-2.74q-2.16-12.82-3-16.15-.41-2-1.5-5.91A19.31,19.31,0,0,0,93.28,3c-.5-1-.92-1.42-1.25-1.42a2.17,2.17,0,0,0-1.91.83q-.42.75-1.29,8.24T87.29,25.8L86.21,39.61q0,3.57-.5,10.82c-.34,4.88-.5,8.51-.5,10.9v.33a5.12,5.12,0,0,0,.25,1.66c.22.45.75.67,1.58.67A1.59,1.59,0,0,0,88.16,63.57ZM88.7,47.1q0-5.16.59-14.11t1.24-15.76c.12-2,.34-4.08.67-6.41l.33-3.25a7.74,7.74,0,0,0,.17-.91l.16-1a33.21,33.21,0,0,1,1.29,5.07q.63,3.25,1.29,7.66,2,12.41,3.42,18.64l.74,2.83a23.84,23.84,0,0,1,1.25,6.32v.5a27.59,27.59,0,0,1-8.4,1.17H91a2,2,0,0,1-.58.08C89.26,47.93,88.7,47.65,88.7,47.1Z"/></g></g></svg>